<svg width="32" height="32" viewBox="0 0 32 32" fill="none" xmlns="http://www.w3.org/2000/svg">
<path d="M14.6668 10.4332L8.13348 16.9666C7.86681 17.2332 7.5557 17.361 7.20015 17.3499C6.84459 17.3388 6.53348 17.1999 6.26681 16.9332C6.02237 16.6666 5.89459 16.3555 5.88348 15.9999C5.87237 15.6443 6.00015 15.3332 6.26681 15.0666L15.0668 6.26657C15.2001 6.13324 15.3446 6.03879 15.5001 5.98324C15.6557 5.92768 15.8224 5.8999 16.0001 5.8999C16.1779 5.8999 16.3446 5.92768 16.5001 5.98324C16.6557 6.03879 16.8001 6.13324 16.9335 6.26657L25.7335 15.0666C25.9779 15.311 26.1001 15.6166 26.1001 15.9832C26.1001 16.3499 25.9779 16.6666 25.7335 16.9332C25.4668 17.1999 25.1501 17.3332 24.7835 17.3332C24.4168 17.3332 24.1001 17.1999 23.8335 16.9332L17.3335 10.4332V25.3332C17.3335 25.711 17.2057 26.0277 16.9501 26.2832C16.6946 26.5388 16.3779 26.6666 16.0001 26.6666C15.6224 26.6666 15.3057 26.5388 15.0501 26.2832C14.7946 26.0277 14.6668 25.711 14.6668 25.3332V10.4332Z" fill="white"/>
</svg>
