<svg width="44" height="44" viewBox="0 0 44 44" fill="none" xmlns="http://www.w3.org/2000/svg">
<rect width="44" height="44" rx="22" fill="#F8F9FD"/>
<g clip-path="url(#clip0_3609_1871)">
<path d="M16.7982 22.7172H19.2098V32.6452C19.2098 32.8412 19.3686 33 19.5646 33H23.6535C23.8495 33 24.0083 32.8412 24.0083 32.6452V22.764H26.7806C26.9608 22.764 27.1125 22.6287 27.1331 22.4497L27.5541 18.7947C27.5657 18.6941 27.5338 18.5934 27.4666 18.518C27.3992 18.4425 27.3028 18.3992 27.2017 18.3992H24.0084V16.1081C24.0084 15.4175 24.3803 15.0672 25.1138 15.0672C25.2184 15.0672 27.2017 15.0672 27.2017 15.0672C27.3977 15.0672 27.5566 14.9083 27.5566 14.7124V11.3575C27.5566 11.1615 27.3977 11.0026 27.2017 11.0026H24.3243C24.304 11.0016 24.259 11 24.1925 11C23.6933 11 21.9579 11.098 20.5871 12.3591C19.0682 13.7566 19.2794 15.4299 19.3298 15.72V18.3992H16.7982C16.6022 18.3992 16.4434 18.558 16.4434 18.754V22.3623C16.4434 22.5583 16.6022 22.7172 16.7982 22.7172Z" fill="#E65565"/>
</g>
<defs>
<clipPath id="clip0_3609_1871">
<rect width="22" height="22" fill="white" transform="translate(11 11)"/>
</clipPath>
</defs>
</svg>
