<svg width="44" height="44" viewBox="0 0 44 44" fill="none" xmlns="http://www.w3.org/2000/svg">
<rect width="44" height="44" rx="22" fill="#F8F9FD"/>
<path d="M28.4023 13.2545C26.8879 11.8007 24.7922 11 22.5012 11C19.0016 11 16.8493 12.4345 15.6599 13.6379C14.194 15.1208 13.3535 17.09 13.3535 19.0404C13.3535 21.4894 14.3779 23.369 16.0932 24.0683C16.2084 24.1154 16.3243 24.1392 16.4379 24.1392C16.7998 24.1392 17.0865 23.9024 17.1858 23.5226C17.2437 23.3047 17.3779 22.7671 17.4363 22.5338C17.5611 22.0729 17.4602 21.8512 17.1879 21.5303C16.6918 20.9433 16.4607 20.2491 16.4607 19.3457C16.4607 16.6622 18.4589 13.8103 22.1622 13.8103C25.1007 13.8103 26.926 15.4804 26.926 18.1688C26.926 19.8653 26.5606 21.4364 25.8969 22.5929C25.4356 23.3965 24.6246 24.3544 23.3795 24.3544C22.8411 24.3544 22.3575 24.1333 22.0523 23.7477C21.764 23.3832 21.669 22.9123 21.785 22.4216C21.9159 21.8671 22.0946 21.2887 22.2674 20.7296C22.5827 19.7084 22.8807 18.7439 22.8807 17.9744C22.8807 16.6581 22.0715 15.7737 20.8673 15.7737C19.3369 15.7737 18.138 17.3281 18.138 19.3124C18.138 20.2855 18.3966 21.0134 18.5137 21.2929C18.3209 22.1097 17.1751 26.9661 16.9577 27.8818C16.8321 28.4164 16.075 32.6387 17.3281 32.9754C18.7359 33.3536 19.9943 29.2414 20.1224 28.7768C20.2262 28.3988 20.5894 26.9698 20.812 26.0914C21.4917 26.746 22.5859 27.1886 23.6507 27.1886C25.658 27.1886 27.4632 26.2853 28.7339 24.6453C29.9662 23.0546 30.6449 20.8375 30.6449 18.4027C30.6448 16.4993 29.8273 14.6228 28.4023 13.2545Z" fill="#E65565"/>
</svg>
