<svg width="32" height="32" viewBox="0 0 32 32" fill="none" xmlns="http://www.w3.org/2000/svg">
<rect width="32" height="32" rx="16" fill="#E65565"/>
<rect x="4" y="4" width="24" height="24" rx="12" stroke="white" stroke-width="2"/>
<path d="M16.59 9.29199C17.778 9.29199 18.738 9.62799 19.47 10.3C20.202 10.972 20.568 11.872 20.568 13C20.568 14.26 20.178 15.196 19.398 15.808C18.618 16.408 17.562 16.708 16.23 16.708L16.176 18.418H14.754L14.682 15.574H15.204C16.392 15.574 17.322 15.394 17.994 15.034C18.666 14.674 19.002 13.996 19.002 13C19.002 12.28 18.786 11.71 18.354 11.29C17.922 10.87 17.34 10.66 16.608 10.66C15.864 10.66 15.276 10.864 14.844 11.272C14.424 11.668 14.214 12.214 14.214 12.91H12.666C12.666 12.19 12.828 11.56 13.152 11.02C13.476 10.468 13.932 10.042 14.52 9.74199C15.12 9.44199 15.81 9.29199 16.59 9.29199ZM15.456 22.108C15.144 22.108 14.88 22 14.664 21.784C14.448 21.568 14.34 21.304 14.34 20.992C14.34 20.68 14.448 20.416 14.664 20.2C14.88 19.984 15.144 19.876 15.456 19.876C15.756 19.876 16.008 19.984 16.212 20.2C16.428 20.416 16.536 20.68 16.536 20.992C16.536 21.304 16.428 21.568 16.212 21.784C16.008 22 15.756 22.108 15.456 22.108Z" fill="white"/>
</svg>
 