<svg width="48" height="48" viewBox="0 0 48 48" fill="none" xmlns="http://www.w3.org/2000/svg">
<rect x="1" y="1" width="46" height="46" rx="23" fill="white"/>
<rect x="1" y="1" width="46" height="46" rx="23" stroke="#E65565" stroke-width="2"/>
<path d="M23.9998 25.4L19.0998 30.3C18.9165 30.4834 18.6831 30.575 18.3998 30.575C18.1165 30.575 17.8831 30.4834 17.6998 30.3C17.5165 30.1167 17.4248 29.8834 17.4248 29.6C17.4248 29.3167 17.5165 29.0834 17.6998 28.9L22.5998 24L17.6998 19.1C17.5165 18.9167 17.4248 18.6834 17.4248 18.4C17.4248 18.1167 17.5165 17.8834 17.6998 17.7C17.8831 17.5167 18.1165 17.425 18.3998 17.425C18.6831 17.425 18.9165 17.5167 19.0998 17.7L23.9998 22.6L28.8998 17.7C29.0831 17.5167 29.3165 17.425 29.5998 17.425C29.8831 17.425 30.1165 17.5167 30.2998 17.7C30.4831 17.8834 30.5748 18.1167 30.5748 18.4C30.5748 18.6834 30.4831 18.9167 30.2998 19.1L25.3998 24L30.2998 28.9C30.4831 29.0834 30.5748 29.3167 30.5748 29.6C30.5748 29.8834 30.4831 30.1167 30.2998 30.3C30.1165 30.4834 29.8831 30.575 29.5998 30.575C29.3165 30.575 29.0831 30.4834 28.8998 30.3L23.9998 25.4Z" fill="#E65565"/>
</svg>
