<svg width="32" height="32" viewBox="0 0 32 32" fill="none" xmlns="http://www.w3.org/2000/svg">
<rect width="32" height="32" rx="16" fill="#E65565"/>
<path d="M11.8346 21C11.5985 21 11.4006 20.9202 11.2409 20.7604C11.0812 20.6007 11.0013 20.4028 11.0013 20.1667V18.5H21.8346V11H23.5013C23.7374 11 23.9353 11.0799 24.0951 11.2396C24.2548 11.3993 24.3346 11.5972 24.3346 11.8334V22.3125C24.3346 22.6875 24.1645 22.9479 23.8242 23.0938C23.4839 23.2396 23.1819 23.1806 22.918 22.9167L21.0013 21H11.8346ZM11.0013 16.8334L9.08464 18.75C8.82075 19.0139 8.51866 19.0729 8.17839 18.9271C7.83811 18.7813 7.66797 18.5209 7.66797 18.1459V8.50002C7.66797 8.26391 7.74783 8.06599 7.90755 7.90627C8.06727 7.74655 8.26519 7.66669 8.5013 7.66669H19.3346C19.5707 7.66669 19.7687 7.74655 19.9284 7.90627C20.0881 8.06599 20.168 8.26391 20.168 8.50002V16C20.168 16.2361 20.0881 16.434 19.9284 16.5938C19.7687 16.7535 19.5707 16.8334 19.3346 16.8334H11.0013Z" fill="white"/>
</svg>
