<svg width="32" height="32" viewBox="0 0 32 32" fill="none" xmlns="http://www.w3.org/2000/svg">
<rect width="32" height="32" rx="16" fill="#E65565"/>
<path d="M15.9987 11.8333C15.5404 11.8333 15.148 11.6701 14.8216 11.3438C14.4952 11.0174 14.332 10.625 14.332 10.1667C14.332 9.70833 14.4952 9.31597 14.8216 8.98958C15.148 8.66319 15.5404 8.5 15.9987 8.5C16.457 8.5 16.8494 8.66319 17.1758 8.98958C17.5022 9.31597 17.6654 9.70833 17.6654 10.1667C17.6654 10.625 17.5022 11.0174 17.1758 11.3438C16.8494 11.6701 16.457 11.8333 15.9987 11.8333ZM15.9987 23.5C15.6515 23.5 15.3563 23.3785 15.1133 23.1354C14.8702 22.8924 14.7487 22.5972 14.7487 22.25V14.75C14.7487 14.4028 14.8702 14.1076 15.1133 13.8646C15.3563 13.6215 15.6515 13.5 15.9987 13.5C16.3459 13.5 16.6411 13.6215 16.8841 13.8646C17.1272 14.1076 17.2487 14.4028 17.2487 14.75V22.25C17.2487 22.5972 17.1272 22.8924 16.8841 23.1354C16.6411 23.3785 16.3459 23.5 15.9987 23.5Z" fill="white"/>
</svg>
