<svg width="32" height="32" viewBox="0 0 32 32" fill="none" xmlns="http://www.w3.org/2000/svg">
<rect width="32" height="32" rx="16" fill="#E65565"/>
<rect x="4" y="4" width="24" height="24" rx="12" stroke="white" stroke-width="2"/>
<path d="M16.5881 9.29199C17.7761 9.29199 18.7361 9.62799 19.4681 10.3C20.2001 10.972 20.5661 11.872 20.5661 13C20.5661 14.26 20.1761 15.196 19.3961 15.808C18.6161 16.408 17.5601 16.708 16.2281 16.708L16.1741 18.418H14.7521L14.6801 15.574H15.2021C16.3901 15.574 17.3201 15.394 17.9921 15.034C18.6641 14.674 19.0001 13.996 19.0001 13C19.0001 12.28 18.7841 11.71 18.3521 11.29C17.9201 10.87 17.3381 10.66 16.6061 10.66C15.8621 10.66 15.2741 10.864 14.8421 11.272C14.4221 11.668 14.2121 12.214 14.2121 12.91H12.6641C12.6641 12.19 12.8261 11.56 13.1501 11.02C13.4741 10.468 13.9301 10.042 14.5181 9.74199C15.1181 9.44199 15.8081 9.29199 16.5881 9.29199ZM15.4541 22.108C15.1421 22.108 14.8781 22 14.6621 21.784C14.4461 21.568 14.3381 21.304 14.3381 20.992C14.3381 20.68 14.4461 20.416 14.6621 20.2C14.8781 19.984 15.1421 19.876 15.4541 19.876C15.7541 19.876 16.0061 19.984 16.2101 20.2C16.4261 20.416 16.5341 20.68 16.5341 20.992C16.5341 21.304 16.4261 21.568 16.2101 21.784C16.0061 22 15.7541 22.108 15.4541 22.108Z" fill="white"/>
</svg>
