<svg width="83" height="100" viewBox="0 0 83 100" fill="none" xmlns="http://www.w3.org/2000/svg">
<g clip-path="url(#clip0_3326_1259)" filter="url(#filter0_d_3326_1259)">
<circle cx="33" cy="48" r="25" fill="#E65565"/>
<path d="M29.5502 47.9996L36.9002 55.3496C37.1502 55.5996 37.271 55.8913 37.2627 56.2246C37.2544 56.558 37.1252 56.8496 36.8752 57.0996C36.6252 57.3496 36.3335 57.4746 36.0002 57.4746C35.6669 57.4746 35.3752 57.3496 35.1252 57.0996L27.4252 49.4246C27.2252 49.2246 27.0752 48.9996 26.9752 48.7496C26.8752 48.4996 26.8252 48.2496 26.8252 47.9996C26.8252 47.7496 26.8752 47.4996 26.9752 47.2496C27.0752 46.9996 27.2252 46.7746 27.4252 46.5746L35.1252 38.8746C35.3752 38.6246 35.671 38.5038 36.0127 38.5121C36.3544 38.5205 36.6502 38.6496 36.9002 38.8996C37.1502 39.1496 37.2752 39.4413 37.2752 39.7746C37.2752 40.108 37.1502 40.3996 36.9002 40.6496L29.5502 47.9996Z" fill="white"/>
</g>
<defs>
<filter id="filter0_d_3326_1259" x="-17" y="0" width="100" height="100" filterUnits="userSpaceOnUse" color-interpolation-filters="sRGB">
<feFlood flood-opacity="0" result="BackgroundImageFix"/>
<feColorMatrix in="SourceAlpha" type="matrix" values="0 0 0 0 0 0 0 0 0 0 0 0 0 0 0 0 0 0 127 0" result="hardAlpha"/>
<feOffset dy="2"/>
<feGaussianBlur stdDeviation="12.5"/>
<feColorMatrix type="matrix" values="0 0 0 0 0.3 0 0 0 0 0.3 0 0 0 0 0.3 0 0 0 0.2 0"/>
<feBlend mode="normal" in2="BackgroundImageFix" result="effect1_dropShadow_3326_1259"/>
<feBlend mode="normal" in="SourceGraphic" in2="effect1_dropShadow_3326_1259" result="shape"/>
</filter>
<clipPath id="clip0_3326_1259">
<rect width="50" height="50" fill="white" transform="translate(8 23)"/>
</clipPath>
</defs>
</svg> 
