<svg width="32" height="32" viewBox="0 0 32 32" fill="none" xmlns="http://www.w3.org/2000/svg">
<rect width="32" height="32" rx="16" fill="#5670CC"/>
<path d="M10.9215 8C9.30312 8 8 9.30312 8 10.9215V21.0785C8 22.6969 9.30312 24 10.9215 24H16.4265V17.745H14.7725V15.493H16.4265V13.569C16.4265 12.0574 17.4038 10.6695 19.655 10.6695C20.5665 10.6695 21.2405 10.757 21.2405 10.757L21.1875 12.86C21.1875 12.86 20.5001 12.8535 19.75 12.8535C18.9382 12.8535 18.808 13.2276 18.808 13.8485V15.493H21.252L21.1455 17.745H18.808V24H21.0785C22.6969 24 24 22.6969 24 21.0785V10.9215C24 9.30313 22.6969 8.00002 21.0785 8.00002H10.9215L10.9215 8Z" fill="white"/>
</svg>
