<svg width="32" height="32" viewBox="0 0 32 32" fill="none" xmlns="http://www.w3.org/2000/svg">
<rect width="32" height="32" rx="16" fill="#5670CC"/>
<path d="M24 11.2243C23.4116 11.4753 22.7795 11.6449 22.115 11.7216C22.8007 11.3266 23.3136 10.705 23.5582 9.97273C22.914 10.3411 22.209 10.6004 21.4738 10.7393C20.9794 10.2311 20.3245 9.89426 19.6109 9.78107C18.8973 9.66788 18.1648 9.78467 17.5272 10.1133C16.8895 10.442 16.3825 10.9641 16.0847 11.5986C15.7869 12.2331 15.715 12.9445 15.8802 13.6224C14.575 13.5593 13.2981 13.2327 12.1324 12.6638C10.9668 12.0948 9.93841 11.2963 9.11407 10.3201C8.8322 10.7881 8.67013 11.3308 8.67013 11.9088C8.66982 12.4291 8.80291 12.9414 9.05761 13.4004C9.3123 13.8593 9.68073 14.2506 10.1302 14.5395C9.60893 14.5236 9.09918 14.388 8.64335 14.144V14.1847C8.6433 14.9145 8.90551 15.6218 9.38549 16.1866C9.86547 16.7514 10.5337 17.139 11.2767 17.2835C10.7931 17.4095 10.2862 17.4281 9.79406 17.3378C10.0037 17.9657 10.412 18.5148 10.9619 18.9082C11.5118 19.3016 12.1758 19.5196 12.8607 19.5317C11.6979 20.4104 10.2619 20.8871 8.78358 20.885C8.52172 20.8851 8.26007 20.8704 8 20.8409C9.50056 21.7697 11.2473 22.2627 13.0313 22.2607C19.0702 22.2607 22.3715 17.4457 22.3715 13.2696C22.3715 13.1339 22.368 12.9969 22.3617 12.8612C23.0038 12.4142 23.5581 11.8606 23.9986 11.2264L24 11.2243Z" fill="white"/>
</svg>
