<svg width="32" height="32" viewBox="0 0 32 32" fill="none" xmlns="http://www.w3.org/2000/svg">
<rect width="32" height="32" rx="16" fill="#5670CC"/>
<path d="M12.5126 11.4375C15.0048 11.4375 17.025 13.4718 17.025 15.981C17.025 18.4903 15.0046 20.5244 12.5126 20.5244C10.0205 20.5244 8 18.4903 8 15.981C8 13.4718 10.0203 11.4375 12.5126 11.4375ZM19.7188 11.7036C20.9649 11.7036 21.9751 13.6185 21.9751 15.981H21.9752C21.9752 18.3429 20.9651 20.2584 19.7189 20.2584C18.4728 20.2584 17.4627 18.3429 17.4627 15.981C17.4627 13.6191 18.4727 11.7036 19.7188 11.7036ZM23.2065 12.1492C23.6446 12.1492 24 13.8647 24 15.981C24 18.0967 23.6448 19.8129 23.2065 19.8129C22.7681 19.8129 22.4131 18.0972 22.4131 15.981C22.4131 13.8649 22.7683 12.1492 23.2065 12.1492Z" fill="white"/>
</svg>
