<svg width="32" height="32" viewBox="0 0 32 32" fill="none" xmlns="http://www.w3.org/2000/svg">
<rect width="32" height="32" rx="16" fill="#5670CC"/>
<path d="M15.9978 13.3322C14.5289 13.3322 13.3301 14.531 13.3301 16C13.3301 17.469 14.5289 18.6678 15.9978 18.6678C17.4668 18.6678 18.6656 17.469 18.6656 16C18.6656 14.531 17.4668 13.3322 15.9978 13.3322ZM23.9991 16C23.9991 14.8953 24.0091 13.8005 23.9471 12.6978C23.885 11.4169 23.5928 10.2801 22.6562 9.3435C21.7176 8.40487 20.5829 8.11467 19.302 8.05263C18.1973 7.99059 17.1026 8.0006 15.9999 8.0006C14.8951 8.0006 13.8004 7.99059 12.6977 8.05263C11.4168 8.11467 10.2801 8.40687 9.34348 9.3435C8.40486 10.2821 8.11467 11.4169 8.05263 12.6978C7.99059 13.8025 8.0006 14.8973 8.0006 16C8.0006 17.1027 7.99059 18.1995 8.05263 19.3022C8.11467 20.5831 8.40686 21.7199 9.34348 22.6565C10.2821 23.5951 11.4168 23.8853 12.6977 23.9474C13.8024 24.0094 14.8971 23.9994 15.9999 23.9994C17.1046 23.9994 18.1993 24.0094 19.302 23.9474C20.5829 23.8853 21.7196 23.5931 22.6562 22.6565C23.5948 21.7179 23.885 20.5831 23.9471 19.3022C24.0111 18.1995 23.9991 17.1047 23.9991 16ZM15.9978 20.1048C13.7264 20.1048 11.8932 18.2715 11.8932 16C11.8932 13.7285 13.7264 11.8952 15.9978 11.8952C18.2693 11.8952 20.1025 13.7285 20.1025 16C20.1025 18.2715 18.2693 20.1048 15.9978 20.1048ZM20.2707 12.6858C19.7403 12.6858 19.312 12.2575 19.312 11.7271C19.312 11.1968 19.7403 10.7685 20.2707 10.7685C20.801 10.7685 21.2293 11.1968 21.2293 11.7271C21.2294 11.853 21.2048 11.9778 21.1566 12.0942C21.1085 12.2105 21.0379 12.3163 20.9489 12.4053C20.8598 12.4944 20.7541 12.565 20.6377 12.6131C20.5213 12.6612 20.3966 12.6859 20.2707 12.6858Z" fill="white"/>
</svg>
