<svg width="24" height="24" viewBox="0 0 24 24" fill="none" xmlns="http://www.w3.org/2000/svg">
<rect width="24" height="24" rx="12" fill="#F8F9FD"/>
<g clip-path="url(#clip0_3418_48773)">
<path d="M8.2151 12.5216H9.96895V19.7419C9.96895 19.8845 10.0845 20 10.227 20H13.2007C13.3433 20 13.4588 19.8845 13.4588 19.7419V12.5556H15.475C15.6061 12.5556 15.7164 12.4572 15.7314 12.327L16.0376 9.66885C16.046 9.59572 16.0228 9.52248 15.9739 9.46761C15.9249 9.4127 15.8548 9.38126 15.7813 9.38126H13.4589V7.71499C13.4589 7.2127 13.7294 6.95799 14.2628 6.95799C14.3389 6.95799 15.7813 6.95799 15.7813 6.95799C15.9238 6.95799 16.0394 6.84243 16.0394 6.69992V4.25997C16.0394 4.11742 15.9238 4.00191 15.7813 4.00191H13.6886C13.6739 4.00119 13.6411 4 13.5928 4C13.2297 4 11.9676 4.07128 10.9707 4.98844C9.86604 6.0048 10.0196 7.22173 10.0563 7.43272V9.38121H8.2151C8.07254 9.38121 7.95703 9.49672 7.95703 9.63928V12.2635C7.95703 12.406 8.07254 12.5216 8.2151 12.5216Z" fill="#E65565"/>
</g>
<defs>
<clipPath id="clip0_3418_48773">
<rect width="16" height="16" fill="white" transform="translate(4 4)"/>
</clipPath>
</defs>
</svg>
