<svg width="24" height="24" viewBox="0 0 24 24" fill="none" xmlns="http://www.w3.org/2000/svg">
<rect width="24" height="24" rx="12" fill="#ffffff"/>
<path d="M16.6555 5.6396C15.5541 4.58231 14.03 4 12.3638 4C9.81867 4 8.25329 5.04329 7.38829 5.91844C6.32222 6.99698 5.71094 8.42908 5.71094 9.84759C5.71094 11.6286 6.45591 12.9956 7.70345 13.5042C7.7872 13.5385 7.87148 13.5558 7.9541 13.5558C8.21729 13.5558 8.42582 13.3836 8.49807 13.1073C8.5402 12.9489 8.63776 12.5579 8.6802 12.3882C8.77101 12.053 8.69764 11.8918 8.49957 11.6584C8.13876 11.2315 7.97073 10.7266 7.97073 10.0696C7.97073 8.11798 9.42392 6.04385 12.1173 6.04385C14.2543 6.04385 15.5819 7.25848 15.5819 9.21368C15.5819 10.4475 15.3161 11.5901 14.8334 12.4312C14.4979 13.0157 13.9081 13.7123 13.0026 13.7123C12.611 13.7123 12.2593 13.5515 12.0373 13.271C11.8277 13.0059 11.7586 12.6635 11.8429 12.3066C11.9381 11.9033 12.0681 11.4827 12.1938 11.0761C12.4231 10.3334 12.6398 9.63193 12.6398 9.07227C12.6398 8.11502 12.0513 7.47179 11.1755 7.47179C10.0625 7.47179 9.19054 8.60224 9.19054 10.0454C9.19054 10.7531 9.37864 11.2825 9.4638 11.4857C9.32358 12.0798 8.49026 15.6117 8.3322 16.2777C8.24079 16.6665 7.69023 19.7372 8.60151 19.9821C9.62539 20.2572 10.5406 17.2665 10.6338 16.9286C10.7093 16.6537 10.9734 15.6144 11.1353 14.9756C11.6296 15.4517 12.4254 15.7735 13.1998 15.7735C14.6597 15.7735 15.9725 15.1166 16.8966 13.9239C17.7929 12.767 18.2865 11.1546 18.2865 9.3838C18.2864 7.99948 17.6919 6.63473 16.6555 5.6396Z" fill="#E65565"/>
</svg>
