<svg width="32" height="32" viewBox="0 0 32 32" fill="none" xmlns="http://www.w3.org/2000/svg">
<rect width="32" height="32" rx="16" fill="#5670CC"/>
<path d="M20.6577 9.6396C19.5563 8.58231 18.0322 8 16.366 8C13.8209 8 12.2555 9.04329 11.3905 9.91844C10.3244 10.997 9.71313 12.4291 9.71313 13.8476C9.71313 15.6286 10.4581 16.9956 11.7056 17.5042C11.7894 17.5385 11.8737 17.5558 11.9563 17.5558C12.2195 17.5558 12.428 17.3836 12.5003 17.1073C12.5424 16.9489 12.64 16.5579 12.6824 16.3882C12.7732 16.053 12.6998 15.8918 12.5018 15.6584C12.141 15.2315 11.9729 14.7266 11.9729 14.0696C11.9729 12.118 13.4261 10.0439 16.1195 10.0439C18.2565 10.0439 19.584 11.2585 19.584 13.2137C19.584 14.4475 19.3183 15.5901 18.8356 16.4312C18.5001 17.0157 17.9103 17.7123 17.0048 17.7123C16.6132 17.7123 16.2615 17.5515 16.0395 17.271C15.8299 17.0059 15.7608 16.6635 15.8451 16.3066C15.9403 15.9033 16.0703 15.4827 16.196 15.0761C16.4253 14.3334 16.642 13.6319 16.642 13.0723C16.642 12.115 16.0535 11.4718 15.1777 11.4718C14.0647 11.4718 13.1927 12.6022 13.1927 14.0454C13.1927 14.7531 13.3808 15.2825 13.466 15.4857C13.3258 16.0798 12.4925 19.6117 12.3344 20.2777C12.243 20.6665 11.6924 23.7372 12.6037 23.9821C13.6276 24.2572 14.5428 21.2665 14.636 20.9286C14.7115 20.6537 14.9756 19.6144 15.1375 18.9756C15.6318 19.4517 16.4276 19.7735 17.202 19.7735C18.6619 19.7735 19.9747 19.1166 20.8988 17.9239C21.7951 16.767 22.2887 15.1546 22.2887 13.3838C22.2886 11.9995 21.6941 10.6347 20.6577 9.6396Z" fill="white"/>
</svg>
