<svg width="222" height="24" viewBox="0 0 222 24" fill="none" xmlns="http://www.w3.org/2000/svg">
<path d="M202.774 0.522949H210.798C212.198 0.522949 213.421 0.671456 214.467 0.96847C215.526 1.26548 216.409 1.67872 217.115 2.20818C217.822 2.73764 218.351 3.37041 218.704 4.10648C219.058 4.84256 219.234 5.64321 219.234 6.50842C219.234 7.21867 219.097 7.88372 218.822 8.50358C218.547 9.12343 218.155 9.68518 217.645 10.1888C217.148 10.6795 216.546 11.1121 215.84 11.4866C215.147 11.8482 214.382 12.1259 213.545 12.3196L222 23.4576H217.468L209.405 12.6682H206.678V23.4576H202.774V0.522949ZM206.678 11.5254H208.915C209.791 11.5254 210.602 11.4156 211.348 11.1961C212.093 10.9636 212.734 10.6343 213.27 10.2082C213.819 9.78203 214.245 9.26548 214.545 8.65854C214.859 8.0516 215.016 7.37364 215.016 6.62464C215.016 5.94022 214.892 5.31391 214.643 4.74571C214.408 4.17751 214.075 3.68679 213.643 3.27355C213.211 2.86032 212.695 2.53748 212.093 2.30503C211.491 2.07259 210.831 1.95636 210.112 1.95636H206.678V11.5254Z" fill="#0C132C"/>
<path d="M198.439 0.522949V1.9951H186.197V10.2082H194.378V11.6803H186.197V21.9854H198.439V23.4576H182.293V0.522949H198.439Z" fill="#0C132C"/>
<path d="M169.815 22.5278C170.391 22.5278 170.959 22.4504 171.522 22.2954C172.084 22.1404 172.581 21.9144 173.013 21.6174C173.458 21.3075 173.811 20.933 174.072 20.4939C174.347 20.042 174.484 19.5254 174.484 18.9443C174.484 18.247 174.301 17.6271 173.935 17.0847C173.569 16.5295 173.085 16.0258 172.483 15.5738C171.895 15.109 171.215 14.6764 170.443 14.276C169.684 13.8757 168.9 13.4754 168.089 13.0751C167.291 12.6618 166.506 12.2357 165.735 11.7966C164.976 11.3446 164.296 10.8475 163.694 10.3051C163.106 9.76271 162.628 9.15577 162.262 8.48426C161.896 7.81275 161.713 7.03793 161.713 6.15981C161.713 5.28168 161.876 4.46812 162.203 3.71913C162.543 2.97014 163.034 2.318 163.675 1.76271C164.329 1.20743 165.126 0.774818 166.068 0.464891C167.01 0.154964 168.089 0 169.305 0C171.502 0 173.235 0.458434 174.504 1.3753C175.786 2.27926 176.708 3.58999 177.27 5.30751L175.269 6.21792C175.034 5.50767 174.733 4.86199 174.367 4.28087C174.013 3.69976 173.582 3.20258 173.072 2.78935C172.575 2.37611 171.999 2.05973 171.345 1.84019C170.691 1.60775 169.952 1.49153 169.128 1.49153C168.396 1.49153 167.755 1.59483 167.206 1.80145C166.657 1.99516 166.199 2.25989 165.833 2.59564C165.466 2.91848 165.192 3.28652 165.009 3.69976C164.826 4.11299 164.734 4.53269 164.734 4.95884C164.734 5.56578 164.917 6.12107 165.283 6.6247C165.663 7.11542 166.16 7.58676 166.774 8.03874C167.402 8.4778 168.108 8.90395 168.893 9.31719C169.678 9.73043 170.476 10.1501 171.286 10.5763C172.11 11.0024 172.915 11.4479 173.7 11.9128C174.484 12.3777 175.184 12.8878 175.799 13.4431C176.426 13.9855 176.923 14.586 177.29 15.2446C177.669 15.8902 177.859 16.6134 177.859 17.414C177.859 18.318 177.682 19.1703 177.329 19.9709C176.976 20.7716 176.453 21.4689 175.759 22.063C175.066 22.657 174.197 23.1283 173.15 23.477C172.104 23.8257 170.894 24 169.521 24C168.409 24 167.409 23.8773 166.519 23.632C165.643 23.3866 164.871 23.0379 164.204 22.586C163.537 22.1211 162.962 21.5593 162.478 20.9007C162.007 20.2292 161.615 19.4673 161.301 18.615L163.4 17.7627C163.884 19.2736 164.688 20.4487 165.813 21.2881C166.951 22.1146 168.285 22.5278 169.815 22.5278Z" fill="#0C132C"/>
<path d="M153.729 0.522949H157.633V23.4576H153.729V0.522949Z" fill="#0C132C"/>
<path d="M131.972 0.522949L140.722 18.7699L148.883 0.522949H150.727L140.173 23.9999H139.172L127.853 0.522949H131.972Z" fill="#0C132C"/>
<path d="M103.741 0.522949H111.451C113.845 0.522949 115.898 0.742481 117.611 1.18154C119.325 1.62061 120.757 2.3244 121.908 3.29293C123.229 4.39058 124.216 5.65612 124.87 7.08954C125.537 8.51004 125.871 10.0726 125.871 11.7772C125.871 13.3914 125.57 14.9087 124.968 16.3292C124.38 17.7497 123.516 18.9895 122.379 20.0484C121.241 21.1073 119.835 21.9402 118.161 22.5472C116.487 23.1541 114.57 23.4576 112.412 23.4576H103.741V0.522949ZM107.645 21.7723H111.765C113.086 21.7723 114.322 21.5593 115.473 21.1331C116.637 20.707 117.644 20.0742 118.494 19.2348C119.357 18.3954 120.037 17.3623 120.534 16.1355C121.031 14.8958 121.28 13.4689 121.28 11.8547C121.28 10.4471 121.044 9.15572 120.574 7.98058C120.103 6.79252 119.449 5.77234 118.612 4.92004C117.775 4.06774 116.774 3.40915 115.61 2.94426C114.446 2.46645 113.178 2.22755 111.804 2.22755H107.645V21.7723Z" fill="#0C132C"/>
<path d="M89.7922 0L100.72 23.4576H96.7567L93.2058 15.8063H83.2593L79.5907 23.4576H77.6289L88.8309 0H89.7922ZM83.946 14.3148H92.4995L88.2816 5.24939L83.946 14.3148Z" fill="#0C132C"/>
<path d="M58.3057 0.522949H66.3295C67.729 0.522949 68.9518 0.671456 69.9981 0.96847C71.0575 1.26548 71.9403 1.67872 72.6466 2.20818C73.3529 2.73764 73.8825 3.37041 74.2357 4.10648C74.5888 4.84256 74.7654 5.64321 74.7654 6.50842C74.7654 7.21867 74.628 7.88372 74.3534 8.50358C74.0787 9.12343 73.6864 9.68518 73.1763 10.1888C72.6793 10.6795 72.0777 11.1121 71.3714 11.4866C70.6782 11.8482 69.9131 12.1259 69.0761 12.3196L77.5315 23.4576H72.9997L64.9366 12.6682H62.2097V23.4576H58.3057V0.522949ZM62.2097 11.5254H64.4462C65.3225 11.5254 66.1333 11.4156 66.8788 11.1961C67.6243 10.9636 68.2652 10.6343 68.8014 10.2082C69.3507 9.78203 69.7758 9.26548 70.0766 8.65854C70.3905 8.0516 70.5474 7.37364 70.5474 6.62464C70.5474 5.94022 70.4232 5.31391 70.1747 4.74571C69.9393 4.17751 69.6058 3.68679 69.1742 3.27355C68.7426 2.86032 68.226 2.53748 67.6243 2.30503C67.0227 2.07259 66.3622 1.95636 65.6429 1.95636H62.2097V11.5254Z" fill="#E65565"/>
<path d="M48.5752 0.522949H52.4792V23.4576H48.5752V0.522949Z" fill="#E65565"/>
<path d="M34.6262 0L45.5536 23.4576H41.5907L38.0398 15.8063H28.0933L24.4247 23.4576H22.4629L33.6649 0H34.6262ZM28.78 14.3148H37.3335L33.1156 5.24939L28.78 14.3148Z" fill="#E65565"/>
<path d="M3.90403 12.4552V23.4576H0V0.522949H3.90403V10.983H15.5769V0.522949H19.4809V23.4576H15.5769V12.4552H3.90403Z" fill="#E65565"/>
</svg>
